<svg width="294" height="23" fill="none" xmlns="http://www.w3.org/2000/svg"><path d="M26.926 16.438a6.25 6.25 0 01-.528 2.558 6.566 6.566 0 01-1.406 2.09 6.955 6.955 0 01-2.11 1.406 6.457 6.457 0 01-2.558.508H6.848v-4.043h13.476a2.62 2.62 0 001.016-.195c.312-.13.58-.306.8-.528.235-.234.417-.5.547-.8.13-.313.196-.645.196-.997 0-.364-.065-.703-.195-1.015a2.305 2.305 0 00-.547-.8 2.305 2.305 0 00-.801-.548 2.614 2.614 0 00-1.016-.195H6.848V9.836h10.195c.39-.013.755-.085 1.094-.215.338-.13.631-.3.879-.508a2.41 2.41 0 00.605-.761c.143-.3.215-.619.215-.957 0-.352-.065-.671-.195-.957a2.36 2.36 0 00-.547-.782 2.217 2.217 0 00-.801-.508c-.3-.13-.625-.195-.977-.195H4.953V23H.871V.93h16.445c.899 0 1.745.169 2.54.507a6.465 6.465 0 012.09 1.387 6.126 6.126 0 011.406 2.051 6.07 6.07 0 01.527 2.52c0 .572-.078 1.113-.235 1.62a6.023 6.023 0 01-.605 1.426c.573.26 1.094.6 1.563 1.016a6.24 6.24 0 011.23 1.387c.352.52.619 1.087.8 1.699.196.599.294 1.23.294 1.895zM54.036 23h-22.97V.93h22.97v4.023H35.108v14.004h18.926V23zm-2.56-9.121H37.005V9.836h14.473v4.043zM84.387 23h-5.448l-6.25-5.957h-8.106v-3.965h11.074c.56 0 1.087-.11 1.582-.332a4.267 4.267 0 001.29-.879c.364-.377.65-.814.859-1.308a3.985 3.985 0 00.312-1.563c0-.56-.104-1.08-.312-1.562a3.993 3.993 0 00-.86-1.29 3.992 3.992 0 00-1.289-.859 3.83 3.83 0 00-1.582-.332H62.492V23h-4.004V1.008h17.168c1.107 0 2.149.215 3.125.644.977.417 1.823.99 2.54 1.72a7.817 7.817 0 011.718 2.538c.417.964.625 1.992.625 3.086 0 .899-.143 1.764-.43 2.598a8.256 8.256 0 01-3.027 4.023 7.504 7.504 0 01-2.305 1.094L84.387 23zm26.993 0H88.41V.93h22.969v4.023H92.453v14.004h18.926V23zm-2.559-9.121H94.348V9.836h14.472v4.043zm31.016-8.926l-19.004 14.043h19.004V23h-25.195v-4.004l19.121-14.043h-19.121V1.008h25.195v3.945zm30.371 7.012c0 1.523-.241 2.956-.723 4.297a10.585 10.585 0 01-2.07 3.496 9.723 9.723 0 01-3.203 2.383c-1.237.573-2.617.859-4.141.859h-6.953c-1.523 0-2.91-.287-4.16-.86a9.95 9.95 0 01-3.223-2.382 10.764 10.764 0 01-2.05-3.496c-.482-1.341-.723-2.774-.723-4.297 0-1.51.241-2.93.723-4.258.481-1.328 1.165-2.487 2.05-3.477a9.713 9.713 0 013.223-2.363c1.25-.573 2.637-.86 4.16-.86h6.953c1.524 0 2.904.287 4.141.86a9.495 9.495 0 013.203 2.363c.898.99 1.589 2.149 2.07 3.477.482 1.328.723 2.747.723 4.258zm-4.004 0c0-.964-.143-1.869-.43-2.715a6.335 6.335 0 00-1.211-2.227 5.541 5.541 0 00-1.914-1.503c-.755-.378-1.614-.567-2.578-.567h-6.953c-.963 0-1.829.189-2.597.567-.756.364-1.4.865-1.934 1.503-.521.625-.925 1.368-1.211 2.227a8.793 8.793 0 00-.41 2.715c0 .963.137 1.875.41 2.734.286.847.69 1.589 1.211 2.227a5.973 5.973 0 001.934 1.523c.768.365 1.634.547 2.597.547h6.953c.964 0 1.823-.182 2.578-.547a5.753 5.753 0 001.914-1.523 6.572 6.572 0 001.211-2.227c.287-.86.43-1.77.43-2.734zm32.598-10.957L187.57 23H183L171.691 1.008h4.551l9.043 17.558 9.004-17.558h4.512zm27.129 15.508a6.42 6.42 0 01-.508 2.539 6.566 6.566 0 01-1.387 2.05 6.267 6.267 0 01-2.051 1.387 6.267 6.267 0 01-2.519.508h-18.692v-4.004h18.692c.351 0 .677-.058.976-.176.313-.13.58-.306.801-.527a2.56 2.56 0 00.547-.8c.13-.3.195-.626.195-.977 0-.352-.065-.677-.195-.977a2.295 2.295 0 00-.547-.8 2.299 2.299 0 00-.801-.548 2.42 2.42 0 00-.976-.195H207.22c-.886 0-1.719-.17-2.5-.508a6.564 6.564 0 01-2.051-1.386 6.742 6.742 0 01-1.387-2.09 6.417 6.417 0 01-.508-2.54c0-.872.17-1.699.508-2.48a6.505 6.505 0 011.387-2.07 6.562 6.562 0 012.051-1.387 6.019 6.019 0 012.5-.527h17.246v3.945H207.22a2.32 2.32 0 00-.977.215c-.299.13-.56.312-.781.547a2.452 2.452 0 00-.527.8c-.131.3-.196.62-.196.958 0 .351.065.683.196.996.13.3.306.566.527.8.221.222.482.398.781.528.313.13.638.195.977.195h12.246c.898 0 1.738.176 2.519.527a6.12 6.12 0 012.051 1.407 6.504 6.504 0 011.387 2.07c.338.794.508 1.634.508 2.52zM256.145 23h-5.411l-10.546-10.605-6.094 4.414V23h-4.004V1.008h4.004v11.191l15.722-11.191h6.114l-12.676 9.16L256.145 23zm7.011 0h-3.965V1.008h3.965V23zm30.176-6.484c0 .898-.215 1.744-.644 2.539a6.615 6.615 0 01-1.719 2.05c-.716.586-1.563 1.049-2.539 1.387a9.419 9.419 0 01-3.106.508h-17.207v-4.004h17.207c.547 0 1.061-.058 1.543-.176.495-.13.925-.306 1.289-.527.365-.234.651-.501.86-.8.208-.3.312-.626.312-.977v-.996h-13.242a7.833 7.833 0 01-3.106-.625 8.588 8.588 0 01-2.539-1.72 8.283 8.283 0 01-1.699-2.538 7.89 7.89 0 01-.625-3.125V1.008h3.965v6.504c0 .56.104 1.087.313 1.582.208.482.494.905.859 1.27a4.23 4.23 0 001.269.84 3.987 3.987 0 001.563.312h13.242V1.008h4.004v15.508z" fill="#367EEF"/></svg>